<svg xmlns="http://www.w3.org/2000/svg" xmlns:xlink="http://www.w3.org/1999/xlink" width="620" zoomAndPan="magnify" viewBox="0 0 464.87997 187.499995" height="250" preserveAspectRatio="xMidYMid meet" version="1.0"><defs><clipPath id="4a7cad6dd7"><path d="M 0.558594 0 L 464.203125 0 L 464.203125 187 L 0.558594 187 Z M 0.558594 0 " clip-rule="nonzero"/></clipPath></defs><g clip-path="url(#4a7cad6dd7)"><path fill="#ffffff" d="M 0.558594 0 L 464.320312 0 L 464.320312 194.480469 L 0.558594 194.480469 Z M 0.558594 0 " fill-opacity="1" fill-rule="nonzero"/><path fill="#ffffff" d="M 0.558594 0 L 464.320312 0 L 464.320312 187 L 0.558594 187 Z M 0.558594 0 " fill-opacity="1" fill-rule="nonzero"/><path fill="#4682b4" d="M 0.558594 0 L 464.320312 0 L 464.320312 187 L 0.558594 187 Z M 0.558594 0 " fill-opacity="1" fill-rule="nonzero"/></g><path stroke-linecap="butt" transform="matrix(0.748005, 0, 0, 0.748005, 90.808721, 116.938155)" fill="none" stroke-linejoin="miter" d="M 24.685277 50.99935 L 18.282832 50.99935 L 3.618831 23.645348 L 14.507165 23.645348 L 21.170721 38.408571 L 27.719388 23.645348 L 34.231499 23.645348 L 40.790611 38.408571 L 47.459389 23.645348 L 58.342501 23.645348 L 43.668056 50.99935 L 37.276055 50.99935 L 30.972833 36.873238 Z M 88.150948 38.633127 L 68.311724 38.633127 C 68.311724 40.549683 68.927946 41.975349 70.170835 42.899683 C 71.424169 43.824016 72.776724 44.283572 74.233724 44.283572 C 75.763836 44.283572 76.970169 44.079905 77.852725 43.667349 C 78.740503 43.260016 79.753614 42.450572 80.902503 41.233794 L 87.722725 44.659572 C 84.876614 49.417017 80.14528 51.793128 73.528724 51.793128 C 69.408391 51.793128 65.872946 50.383128 62.917168 47.563128 C 59.966612 44.732683 58.493946 41.333016 58.493946 37.353682 C 58.493946 33.369127 59.966612 29.953793 62.917168 27.107682 C 65.872946 24.26157 69.408391 22.835904 73.528724 22.835904 C 77.868391 22.835904 81.398614 24.094459 84.11417 26.601126 C 86.84017 29.107793 88.20317 32.690238 88.20317 37.343238 C 88.20317 37.985571 88.187503 38.413794 88.150948 38.633127 Z M 68.572835 33.395238 L 78.975503 33.395238 C 78.756169 31.974793 78.197391 30.878126 77.293947 30.115682 C 76.390502 29.353237 75.225947 28.972015 73.805502 28.972015 C 72.244058 28.972015 70.995946 29.384571 70.066391 30.20446 C 69.14728 31.024349 68.645946 32.08446 68.572835 33.395238 Z M 92.626392 50.99935 L 92.626392 5.132569 L 102.068171 5.132569 L 102.068171 50.99935 Z M 123.02495 30.570015 C 121.244172 30.570015 119.714061 31.233237 118.429394 32.549238 C 117.14995 33.860015 116.512839 35.442349 116.512839 37.291016 C 116.512839 39.171016 117.14995 40.774238 118.429394 42.09546 C 119.714061 43.411461 121.244172 44.074683 123.02495 44.074683 C 123.876172 44.074683 124.680395 43.965016 125.442839 43.745683 C 126.210506 43.531572 126.769284 43.317461 127.124395 43.108572 L 127.604839 42.784794 L 130.811284 49.343905 C 130.555395 49.526683 130.210728 49.756461 129.766839 50.022794 C 129.322951 50.283905 128.309839 50.644239 126.722284 51.103794 C 125.13995 51.56335 123.442728 51.793128 121.630617 51.793128 C 117.61995 51.793128 114.089727 50.383128 111.045171 47.563128 C 108.005838 44.732683 106.486171 41.348683 106.486171 37.405905 C 106.486171 33.421349 108.005838 30.000793 111.045171 27.133793 C 114.089727 24.272015 117.61995 22.835904 121.630617 22.835904 C 123.442728 22.835904 125.113839 23.055237 126.64395 23.488681 C 128.179284 23.911681 129.265506 24.339904 129.897395 24.762904 L 130.811284 25.405237 L 127.604839 31.859904 C 126.435061 31.00346 124.90495 30.570015 123.02495 30.570015 Z M 137.229396 47.745905 C 134.190062 45.046016 132.670395 41.583683 132.670395 37.353682 C 132.670395 33.11846 134.252729 29.64046 137.412173 26.924904 C 140.582062 24.198904 144.493507 22.835904 149.156952 22.835904 C 153.736841 22.835904 157.601286 24.209348 160.745064 26.951015 C 163.894064 29.68746 165.471175 33.155015 165.471175 37.353682 C 165.471175 41.547127 163.93062 45.004238 160.859953 47.719794 C 157.789286 50.43535 153.888286 51.793128 149.156952 51.793128 C 144.253285 51.793128 140.273951 50.445794 137.229396 47.745905 Z M 144.535285 32.705904 C 143.308063 33.912238 142.697063 35.463238 142.697063 37.353682 C 142.697063 39.238905 143.281952 40.774238 144.456952 41.964905 C 145.637174 43.155572 147.182952 43.745683 149.10473 43.745683 C 150.953397 43.745683 152.473063 43.145127 153.658508 41.938794 C 154.849175 40.722016 155.444508 39.191905 155.444508 37.343238 C 155.444508 35.458016 154.833508 33.912238 153.606286 32.705904 C 152.384285 31.499571 150.880285 30.899015 149.10473 30.899015 C 147.287396 30.899015 145.767729 31.499571 144.535285 32.705904 Z M 169.89962 50.99935 L 169.89962 23.645348 L 179.341398 23.645348 L 179.341398 26.522793 L 179.445843 26.522793 C 181.900288 24.068348 184.511399 22.835904 187.284399 22.835904 C 189.268844 22.835904 191.138399 23.248459 192.882622 24.07357 C 194.626844 24.888237 195.942844 26.146793 196.8254 27.849237 C 199.603622 24.507015 202.627289 22.835904 205.901623 22.835904 C 208.810401 22.835904 211.311845 23.655792 213.416401 25.300793 C 215.515734 26.930126 216.565401 29.489015 216.565401 32.982682 L 216.565401 50.99935 L 207.123623 50.99935 L 207.123623 35.531127 C 207.123623 34.074127 206.721512 32.857349 205.912067 31.886015 C 205.118289 30.904237 203.917178 30.413349 202.319178 30.413349 C 200.930067 30.413349 199.875178 30.831126 199.144067 31.666682 C 198.412955 32.497015 198.016066 33.504904 197.948178 34.685127 L 197.948178 50.99935 L 188.506399 50.99935 L 188.506399 35.531127 C 188.506399 34.074127 188.10951 32.857349 187.31051 31.886015 C 186.51151 30.904237 185.310399 30.413349 183.717621 30.413349 C 182.255399 30.413349 181.163954 30.872904 180.432843 31.781571 C 179.706954 32.685015 179.341398 33.755571 179.341398 34.99846 L 179.341398 50.99935 Z M 250.107737 38.633127 L 230.268513 38.633127 C 230.268513 40.549683 230.889958 41.975349 232.127624 42.899683 C 233.380958 43.824016 234.733513 44.283572 236.190514 44.283572 C 237.720625 44.283572 238.926958 44.079905 239.809514 43.667349 C 240.697292 43.260016 241.710403 42.450572 242.859292 41.233794 L 249.679515 44.659572 C 246.833403 49.417017 242.10207 51.793128 235.490736 51.793128 C 231.36518 51.793128 227.829735 50.383128 224.879179 47.563128 C 221.923401 44.732683 220.450735 41.333016 220.450735 37.353682 C 220.450735 33.369127 221.923401 29.953793 224.879179 27.107682 C 227.829735 24.26157 231.36518 22.835904 235.490736 22.835904 C 239.830403 22.835904 243.355403 24.094459 246.070959 26.601126 C 248.796959 29.107793 250.159959 32.690238 250.159959 37.343238 C 250.159959 37.985571 250.144292 38.413794 250.107737 38.633127 Z M 230.529624 33.395238 L 240.932292 33.395238 C 240.712958 31.974793 240.154181 30.878126 239.250736 30.115682 C 238.347292 29.353237 237.182736 28.972015 235.762291 28.972015 C 234.200847 28.972015 232.952736 29.384571 232.02318 30.20446 C 231.104069 31.024349 230.607958 32.08446 230.529624 33.395238 Z M 260.667071 39.583571 C 262.369515 39.583571 263.810849 40.178905 265.001516 41.380016 C 266.197405 42.56546 266.79796 44.012016 266.79796 45.714461 C 266.79796 50.983683 263.810849 56.085795 257.841848 61.026017 L 255.12107 58.785684 C 255.361293 58.571573 255.669404 58.247795 256.045404 57.824795 C 256.416182 57.396573 256.969737 56.534906 257.695626 55.22935 C 258.426737 53.939461 258.917626 52.633906 259.168293 51.323128 C 257.815737 51.004572 256.713848 50.336128 255.862626 49.323017 C 255.011404 48.304683 254.588404 47.103572 254.588404 45.714461 C 254.588404 44.012016 255.178515 42.56546 256.369182 41.380016 C 257.559848 40.178905 258.990737 39.583571 260.667071 39.583571 Z M 289.357962 23.645348 L 289.357962 17.82257 C 289.394517 13.738792 290.350184 10.46968 292.235406 8.020458 C 294.120629 5.566013 296.73174 4.338791 300.073962 4.338791 C 301.494407 4.338791 302.857407 4.542458 304.147296 4.949791 C 305.44763 5.357125 306.382407 5.774902 306.946407 6.197902 L 307.860296 6.782791 L 304.549407 13.45157 C 303.703407 12.955458 302.758185 12.710014 301.724185 12.710014 C 300.554407 12.710014 299.771074 13.106903 299.384629 13.905903 C 298.992962 14.704903 298.794518 16.104459 298.794518 18.099348 L 298.794518 23.645348 L 305.087296 23.645348 L 305.087296 30.846793 L 298.794518 30.846793 L 298.794518 50.99935 L 289.357962 50.99935 L 289.357962 30.846793 L 285.409961 30.846793 L 285.409961 23.645348 Z M 307.755852 50.99935 L 307.755852 23.645348 L 317.192408 23.645348 L 317.192408 27.588126 L 317.296853 27.588126 C 317.364741 27.441904 317.47963 27.264348 317.636297 27.055459 C 317.803408 26.841348 318.148075 26.465348 318.675519 25.937904 C 319.213408 25.400015 319.782631 24.914348 320.383186 24.491348 C 320.988964 24.068348 321.772297 23.681904 322.727964 23.347681 C 323.688853 23.008237 324.670631 22.835904 325.668075 22.835904 C 326.702075 22.835904 327.715187 22.982126 328.702187 23.269348 C 329.699631 23.551348 330.430742 23.83857 330.890298 24.125793 L 331.64752 24.54357 L 327.69952 32.549238 C 326.519298 31.551793 324.884742 31.055682 322.790631 31.055682 C 321.657408 31.055682 320.675631 31.306349 319.850519 31.807682 C 319.035853 32.303793 318.456186 32.904349 318.116742 33.619793 C 317.787742 34.330015 317.547519 34.935793 317.401297 35.426682 C 317.265519 35.922793 317.192408 36.31446 317.192408 36.601682 L 317.192408 50.99935 Z M 335.209076 8.386014 C 336.310965 7.284125 337.626965 6.730569 339.157076 6.730569 C 340.69241 6.730569 342.00841 7.284125 343.110299 8.386014 C 344.21741 9.487903 344.765743 10.809125 344.765743 12.344458 C 344.765743 13.869347 344.21741 15.185347 343.110299 16.287236 C 342.00841 17.383903 340.69241 17.927014 339.157076 17.927014 C 337.626965 17.927014 336.310965 17.383903 335.209076 16.287236 C 334.107187 15.185347 333.553631 13.869347 333.553631 12.344458 C 333.553631 10.809125 334.107187 9.487903 335.209076 8.386014 Z M 334.310854 23.645348 L 334.310854 50.99935 L 343.752632 50.99935 L 343.752632 23.645348 Z M 378.09919 38.633127 L 358.254744 38.633127 C 358.254744 40.549683 358.876189 41.975349 360.113856 42.899683 C 361.367189 43.824016 362.719745 44.283572 364.176745 44.283572 C 365.706856 44.283572 366.913189 44.079905 367.795745 43.667349 C 368.683523 43.260016 369.696634 42.450572 370.845523 41.233794 L 377.665746 44.659572 C 374.819634 49.417017 370.088301 51.793128 363.476967 51.793128 C 359.351411 51.793128 355.815966 50.383128 352.865411 47.563128 C 349.914855 44.732683 348.436966 41.333016 348.436966 37.353682 C 348.436966 33.369127 349.914855 29.953793 352.865411 27.107682 C 355.815966 24.26157 359.351411 22.835904 363.476967 22.835904 C 367.816634 22.835904 371.341634 24.094459 374.062412 26.601126 C 376.788412 29.107793 378.151412 32.690238 378.151412 37.343238 C 378.151412 37.985571 378.130524 38.413794 378.09919 38.633127 Z M 358.515855 33.395238 L 368.918523 33.395238 C 368.69919 31.974793 368.140412 30.878126 367.236967 30.115682 C 366.333523 29.353237 365.174189 28.972015 363.748522 28.972015 C 362.187078 28.972015 360.938967 29.384571 360.014633 30.20446 C 359.0903 31.024349 358.594189 32.08446 358.515855 33.395238 Z M 382.574635 50.99935 L 382.574635 23.645348 L 392.011191 23.645348 L 392.011191 26.522793 L 392.115636 26.522793 C 394.575302 24.068348 397.186414 22.835904 399.954192 22.835904 C 401.306747 22.835904 402.648859 23.013459 403.980525 23.373792 C 405.317414 23.728904 406.596859 24.277237 407.818859 25.024015 C 409.051303 25.770793 410.048748 26.830904 410.811192 28.204348 C 411.578859 29.572571 411.960081 31.165349 411.960081 32.982682 L 411.960081 50.99935 L 402.518303 50.99935 L 402.518303 35.531127 C 402.518303 34.110682 402.06397 32.867793 401.155303 31.807682 C 400.251858 30.742349 399.071636 30.20446 397.609414 30.20446 C 396.188969 30.20446 394.89908 30.758015 393.744969 31.859904 C 392.590858 32.961793 392.011191 34.189015 392.011191 35.531127 L 392.011191 50.99935 Z M 419.683749 47.61535 C 417.12486 44.821461 415.845415 41.395683 415.845415 37.343238 C 415.845415 33.290793 417.12486 29.859793 419.683749 27.055459 C 422.24786 24.245904 425.501305 22.835904 429.449305 22.835904 C 433.068305 22.835904 436.055416 23.974348 438.405417 26.251237 L 438.405417 5.132569 L 447.847195 5.132569 L 447.847195 50.99935 L 438.509861 50.99935 L 438.509861 47.902572 L 438.405417 47.902572 C 436.055416 50.498017 433.068305 51.793128 429.449305 51.793128 C 425.501305 51.793128 422.24786 50.398794 419.683749 47.61535 Z M 427.705083 32.705904 C 426.483082 33.912238 425.86686 35.463238 425.86686 37.353682 C 425.86686 39.238905 426.456971 40.774238 427.626749 41.964905 C 428.806971 43.155572 430.357972 43.745683 432.274527 43.745683 C 434.123194 43.745683 435.642861 43.145127 436.833528 41.938794 C 438.018972 40.722016 438.614306 39.191905 438.614306 37.343238 C 438.614306 35.458016 438.003305 33.912238 436.781305 32.705904 C 435.554083 31.499571 434.055305 30.899015 432.274527 30.899015 C 430.462416 30.899015 428.937527 31.499571 427.705083 32.705904 Z M 456.912973 36.601682 L 455.628307 5.132569 L 465.064863 5.132569 L 463.790641 36.601682 Z M 460.328307 39.583571 C 462.025529 39.583571 463.472085 40.178905 464.662752 41.380016 C 465.858641 42.56546 466.459196 44.012016 466.459196 45.714461 C 466.459196 47.390794 465.858641 48.821683 464.662752 50.01235 C 463.472085 51.197794 462.025529 51.793128 460.328307 51.793128 C 458.651974 51.793128 457.221085 51.197794 456.030418 50.01235 C 454.839751 48.821683 454.244418 47.390794 454.244418 45.714461 C 454.244418 44.012016 454.839751 42.56546 456.030418 41.380016 C 457.221085 40.178905 458.651974 39.583571 460.328307 39.583571 Z M 460.328307 39.583571 " stroke="#000000" stroke-width="1.999999" stroke-opacity="1" stroke-miterlimit="4"/></svg>